<svg width="1567" height="1563" xmlns="http://www.w3.org/2000/svg" xmlns:xlink="http://www.w3.org/1999/xlink" overflow="hidden"><defs><clipPath id="clip0"><rect x="293" y="806" width="1567" height="1563"/></clipPath><linearGradient x1="297.25" y1="809.75" x2="1856.75" y2="2369.25" gradientUnits="userSpaceOnUse" spreadMethod="reflect" id="fill1"><stop offset="0" stop-color="#FACC48" stop-opacity="1"/><stop offset="0.65" stop-color="#F5A841" stop-opacity="1"/><stop offset="0.93" stop-color="#F2823A" stop-opacity="1"/><stop offset="1" stop-color="#F2823A" stop-opacity="1"/></linearGradient><clipPath id="clip2"><rect x="374" y="885" width="1406" height="1408"/></clipPath><clipPath id="clip3"><rect x="374" y="885" width="1406" height="1408"/></clipPath><clipPath id="clip4"><rect x="374" y="885" width="1406" height="1408"/></clipPath></defs><g clip-path="url(#clip0)" transform="translate(-293 -806)"><rect x="297" y="810" width="1560" height="1559" fill="url(#fill1)"/><g clip-path="url(#clip2)"><g clip-path="url(#clip3)"><g clip-path="url(#clip4)"><path d="M703 380.792C557.128 380.792 468.667 499.13 468.667 644.417L468.667 995.917 937.333 995.917 937.333 644.417C937.333 499.13 848.872 380.792 703 380.792Z" fill="#FFFFFF" fill-rule="nonzero" fill-opacity="0.3" transform="matrix(1 0 0 1 374 886)"/><path d="M703 1288.83C767.442 1288.83 820.167 1236.11 820.167 1171.67L585.833 1171.67C585.833 1236.11 638.558 1288.83 703 1288.83ZM1054.5 644.417C1054.5 464.566 959.009 314.007 790.875 274.17L790.875 234.333C790.875 185.709 751.624 146.458 703 146.458 654.376 146.458 615.125 185.709 615.125 234.333L615.125 274.17C447.577 314.007 351.5 463.98 351.5 644.417L351.5 937.333 234.333 1054.5 234.333 1113.08 1171.67 1113.08 1171.67 1054.5 1054.5 937.333 1054.5 644.417ZM937.333 995.917 468.667 995.917 468.667 644.417C468.667 499.13 557.128 380.792 703 380.792 848.872 380.792 937.333 499.13 937.333 644.417L937.333 995.917ZM444.062 239.02 360.288 155.246C219.688 262.453 127.126 427.658 118.924 615.125L236.091 615.125C244.878 459.879 324.552 323.966 444.062 239.02ZM1169.91 615.125 1287.08 615.125C1278.29 427.658 1185.73 262.453 1045.71 155.246L962.524 239.02C1080.86 323.966 1161.12 459.879 1169.91 615.125Z" fill="#FFFFFF" fill-rule="nonzero" fill-opacity="1" transform="matrix(1 0 0 1 374 886)"/></g></g></g></g></svg>