<svg width="3896" height="862" xmlns="http://www.w3.org/2000/svg" xmlns:xlink="http://www.w3.org/1999/xlink" overflow="hidden"><defs><clipPath id="clip0"><rect x="293" y="806" width="3896" height="862"/></clipPath><clipPath id="clip1"><rect x="421" y="870" width="734" height="735"/></clipPath><clipPath id="clip2"><rect x="421" y="870" width="734" height="735"/></clipPath><clipPath id="clip3"><rect x="421" y="870" width="734" height="735"/></clipPath></defs><g clip-path="url(#clip0)" transform="translate(-293 -806)"><path d="M3220.58 1436.97C3232.83 1436.97 3243.76 1442.43 3253.37 1453.34 3260.95 1459.47 3264.75 1468.38 3264.75 1480.06 3264.75 1491.16 3260.5 1500.76 3251.99 1508.85 3243.49 1516.94 3233.56 1520.98 3222.2 1520.98 3210.72 1520.98 3200.93 1516.84 3192.86 1508.56 3184.78 1500.27 3180.74 1490.14 3180.74 1478.17 3180.74 1466.58 3184.47 1456.84 3191.94 1448.96 3199.93 1440.97 3209.48 1436.97 3220.58 1436.97ZM1978.65 1303.64C1958.02 1303.64 1940.65 1311.78 1926.55 1328.07 1912.32 1344.67 1905.21 1365.16 1905.21 1389.55 1905.21 1410.72 1911.01 1427.84 1922.6 1440.93 1934.19 1454.01 1949.08 1460.55 1967.27 1460.55 1987.72 1460.55 2004.97 1453.82 2019.03 1440.34 2035.11 1419.89 2043.15 1397.99 2043.15 1374.64 2043.15 1353.57 2037.1 1336.47 2024.99 1323.36 2013.01 1310.22 1997.57 1303.64 1978.65 1303.64ZM3919.98 1301.48C3887.65 1301.48 3866.61 1317.55 3856.84 1349.71L3979.87 1349.71C3974.03 1317.55 3954.07 1301.48 3919.98 1301.48ZM1971.06 1242.67C1990.12 1242.67 2006.43 1245.82 2019.99 1252.12 2033.69 1258.4 2044.87 1268.53 2053.52 1282.51L2056.74 1248.9 2127.16 1248.9 2095.05 1515.02 2024.72 1515.02 2028.24 1487.38C2007.72 1509.78 1982.97 1520.98 1953.99 1520.98 1918.6 1520.98 1889.75 1508.97 1867.42 1484.94 1845.1 1460.92 1833.94 1429.93 1833.94 1391.99 1833.94 1348.52 1848.33 1312.21 1877.1 1283.05 1899.46 1256.13 1930.78 1242.67 1971.06 1242.67ZM3506.78 1242.4C3524.01 1242.4 3537.7 1245.89 3547.84 1252.87 3556.92 1258.73 3563.97 1268.79 3568.99 1283.05 3591.56 1256.13 3618.25 1242.67 3649.05 1242.67 3703.43 1242.67 3730.62 1267.69 3730.62 1317.74 3730.62 1322.21 3730.19 1328.93 3729.33 1337.9 3728.47 1346.87 3727.34 1357.44 3725.93 1369.63L3708 1515.02 3637.67 1515.02 3656.1 1361.32C3657.73 1347.58 3658.54 1337.66 3658.54 1331.56 3658.54 1312.95 3649.14 1303.64 3630.35 1303.64 3622.3 1303.64 3615.43 1304.79 3609.73 1307.09 3604.02 1309.38 3599.1 1313.01 3594.95 1317.97 3590.8 1322.94 3587.33 1329.52 3584.54 1337.73 3581.75 1345.95 3579.51 1356.28 3577.84 1368.74L3560.04 1515.02 3489.71 1515.02 3508.41 1357.52C3510.03 1343.78 3510.85 1334.58 3510.85 1329.93 3510.85 1312.41 3501.18 1303.64 3481.85 1303.64 3451.96 1303.64 3434.4 1325.1 3429.19 1368.01L3410.98 1515.02 3340.66 1515.02 3372.69 1248.9 3444.99 1248.9 3442.28 1272.75C3457.2 1252.52 3478.7 1242.4 3506.78 1242.4ZM2552.3 1242.4C2569.53 1242.4 2583.22 1245.89 2593.37 1252.87 2602.44 1258.73 2609.49 1268.79 2614.51 1283.05 2637.08 1256.13 2663.77 1242.67 2694.57 1242.67 2748.95 1242.67 2776.14 1267.69 2776.14 1317.74 2776.14 1322.21 2775.71 1328.93 2774.86 1337.9 2774 1346.87 2772.86 1357.44 2771.45 1369.63L2753.52 1515.02 2683.19 1515.02 2701.62 1361.32C2703.25 1347.58 2704.06 1337.66 2704.06 1331.56 2704.06 1312.95 2694.67 1303.64 2675.88 1303.64 2667.82 1303.64 2660.95 1304.79 2655.25 1307.09 2649.54 1309.38 2644.62 1313.01 2640.47 1317.97 2636.33 1322.94 2632.86 1329.52 2630.06 1337.73 2627.27 1345.95 2625.04 1356.28 2623.36 1368.74L2605.57 1515.02 2535.23 1515.02 2553.93 1357.52C2555.55 1343.78 2556.37 1334.58 2556.37 1329.93 2556.37 1312.41 2546.7 1303.64 2527.37 1303.64 2497.48 1303.64 2479.92 1325.1 2474.71 1368.01L2456.5 1515.02 2386.18 1515.02 2418.21 1248.9 2490.51 1248.9 2487.8 1272.75C2502.72 1252.52 2524.22 1242.4 2552.3 1242.4ZM2323.5 1242.13C2342.98 1242.13 2361.32 1250.33 2378.51 1266.73L2335.52 1322.07C2322.52 1312.68 2311.19 1307.98 2301.55 1307.98 2294.91 1307.98 2289.14 1309.25 2284.23 1311.78 2279.31 1314.31 2274.93 1318.49 2271.08 1324.31 2267.23 1330.13 2263.96 1337.88 2261.28 1347.58 2258.59 1357.27 2256.45 1369.05 2254.85 1382.91L2238.55 1515.02 2168.22 1515.02 2200.25 1248.9 2270.66 1248.9 2267.95 1270.85C2282.98 1251.7 2301.49 1242.13 2323.5 1242.13ZM3922.96 1240.5C3962.59 1240.5 3993.88 1253.41 4016.84 1279.22 4040.07 1305.09 4051.69 1339.43 4051.69 1382.23 4051.69 1385.73 4051.29 1394.58 4050.5 1408.79L3853.59 1408.79C3853.59 1422.53 3857.27 1434.36 3864.64 1444.29 3881.18 1456.4 3898.9 1462.45 3917.81 1462.45 3943.92 1462.45 3964.87 1451.97 3980.67 1431.01L4032.72 1459.42C4015.96 1484.3 3996.59 1501.3 3974.63 1510.41 3961.91 1518.9 3942.61 1523.15 3916.73 1523.15 3875.59 1523.15 3842.77 1510.99 3818.26 1486.67 3793.76 1462.36 3781.5 1429.89 3781.5 1389.28 3781.5 1347.04 3794.9 1311.68 3821.7 1283.2 3848.47 1254.73 3882.22 1240.5 3922.96 1240.5ZM1496.28 1214.21 1429.97 1352.15 1537.01 1352.15ZM2992.06 1079.26C3032.05 1079.26 3062.24 1090.46 3082.61 1112.86 3110.59 1137.24 3124.58 1168.5 3124.58 1206.63 3124.58 1231.35 3118.75 1253.93 3107.08 1274.38 3103.83 1281.63 3096.87 1291.84 3086.21 1305 3075.55 1318.17 3062.36 1333.41 3046.65 1350.73L2951.41 1446.46 3101.27 1446.46 3093.28 1515.02 2812.12 1515.02 2980.41 1321.95C2997.55 1303.21 3011.25 1287.7 3021.53 1275.45 3031.8 1263.19 3038.86 1254.03 3042.69 1247.96 3049.77 1236.7 3053.31 1223.19 3053.31 1207.44 3053.31 1197.85 3051.85 1189.28 3048.95 1181.73 3046.04 1174.18 3041.95 1167.8 3036.66 1162.59 3031.37 1157.38 3024.77 1153.35 3016.86 1150.49 3008.95 1147.63 3000.14 1146.19 2990.44 1146.19 2979.4 1146.19 2969.85 1147.72 2961.79 1150.76 2953.73 1153.8 2946.94 1158.54 2941.43 1164.96 2935.91 1171.38 2931.43 1179.8 2927.99 1190.22 2924.54 1200.65 2922.07 1214.88 2920.56 1232.91L2851.14 1232.91C2854.29 1186.85 2863.19 1153.4 2877.82 1132.58 2902.59 1097.03 2940.67 1079.26 2992.06 1079.26ZM1511.71 1055.95 1660.58 1515.02 1586.05 1515.02 1555.7 1416.65 1400.94 1416.65 1349.99 1515.02 1273.6 1515.02ZM1747.37 1046.47 1817.51 1046.47 1760.74 1515.02 1690.41 1515.02Z" stroke="#595959" stroke-width="3" stroke-linecap="butt" stroke-linejoin="round" stroke-miterlimit="10" stroke-opacity="1" fill="#FFFFFF" fill-rule="evenodd" fill-opacity="1"/><text fill="#000000" fill-opacity="0" font-family="Arial,Arial_MSFontService,sans-serif" font-size="476.682" direction="ltr" writing-mode="lr-tb" x="1273.6" y="1463.57">Alarm2.me</text><g clip-path="url(#clip1)"><g clip-path="url(#clip2)"><g clip-path="url(#clip3)"><path d="M367 198.792C290.847 198.792 244.667 260.57 244.667 336.417L244.667 519.917 489.333 519.917 489.333 336.417C489.333 260.57 443.152 198.792 367 198.792Z" fill="#FFFFFF" fill-rule="nonzero" fill-opacity="0.3" transform="matrix(1 0 0 1.00136 421 870)"/><path d="M367 672.833C400.642 672.833 428.167 645.308 428.167 611.667L305.833 611.667C305.833 645.308 333.358 672.833 367 672.833ZM550.5 336.417C550.5 242.526 500.649 163.927 412.875 143.13L412.875 122.333C412.875 96.9492 392.384 76.4583 367 76.4583 341.616 76.4583 321.125 96.9492 321.125 122.333L321.125 143.13C233.657 163.927 183.5 242.22 183.5 336.417L183.5 489.333 122.333 550.5 122.333 581.083 611.667 581.083 611.667 550.5 550.5 489.333 550.5 336.417ZM489.333 519.917 244.667 519.917 244.667 336.417C244.667 260.57 290.847 198.792 367 198.792 443.152 198.792 489.333 260.57 489.333 336.417L489.333 519.917ZM231.822 124.78 188.087 81.0458C114.687 137.013 66.3658 223.258 62.0842 321.125L123.251 321.125C127.838 240.079 169.432 169.126 231.822 124.78ZM610.749 321.125 671.916 321.125C667.328 223.258 619.007 137.013 545.912 81.0458L502.484 124.78C564.262 169.126 606.162 240.079 610.749 321.125Z" fill="#FFFFFF" fill-rule="nonzero" fill-opacity="1" transform="matrix(1 0 0 1.00136 421 870)"/></g></g></g></g></svg>