<svg width="2933" height="578" xmlns="http://www.w3.org/2000/svg" xmlns:xlink="http://www.w3.org/1999/xlink" overflow="hidden"><defs><clipPath id="clip0"><rect x="334" y="957" width="2933" height="578"/></clipPath><clipPath id="clip1"><rect x="588" y="1095" width="314" height="316"/></clipPath><clipPath id="clip2"><rect x="588" y="1095" width="314" height="316"/></clipPath><clipPath id="clip3"><rect x="588" y="1095" width="314" height="316"/></clipPath></defs><g clip-path="url(#clip0)" transform="translate(-334 -957)"><rect x="337" y="961" width="2928" height="571" fill="#000000" fill-opacity="1"/><text fill="#FFFFFF" fill-opacity="1" font-family="Helvetica,Helvetica_MSFontService,sans-serif" font-style="normal" font-variant="normal" font-weight="400" font-stretch="normal" font-size="220" text-anchor="start" direction="ltr" writing-mode="lr-tb" unicode-bidi="normal" text-decoration="none" transform="matrix(1 0 0 1 1167.53 1316)">Download<tspan fill="#FFFFFF" fill-opacity="1" font-family="Helvetica,Helvetica_MSFontService,sans-serif" font-style="normal" font-variant="normal" font-weight="400" font-stretch="normal" font-size="220" text-anchor="start" direction="ltr" writing-mode="lr-tb" unicode-bidi="normal" text-decoration="none" x="1040.42" y="0">Client</tspan><tspan fill="#FFFFFF" fill-opacity="1" font-family="Helvetica,Helvetica_MSFontService,sans-serif" font-style="normal" font-variant="normal" font-weight="400" font-stretch="normal" font-size="220" text-anchor="start" direction="ltr" writing-mode="lr-tb" unicode-bidi="normal" text-decoration="none" x="1603.02" y="0">s</tspan></text><path d="M1026.5 1043.5 1026.5 1450.07" stroke="#FFFFFF" stroke-width="6.875" stroke-linecap="butt" stroke-linejoin="miter" stroke-miterlimit="8" stroke-opacity="1" fill="none" fill-rule="evenodd"/><g clip-path="url(#clip1)"><g clip-path="url(#clip2)"><g clip-path="url(#clip3)"><path d="M247.792 117.375 195.625 117.375 195.625 39.125 117.375 39.125 117.375 117.375 65.2084 117.375 156.5 208.667 247.792 117.375ZM143.458 143.458 143.458 65.2084 169.542 65.2084 169.542 143.458 184.801 143.458 156.5 171.759 128.2 143.458 143.458 143.458ZM65.2084 234.75 247.792 234.75 247.792 260.833 65.2084 260.833Z" fill="#FFFFFF" fill-rule="nonzero" fill-opacity="1" transform="matrix(1 0 0 1.00319 589 1096)"/></g></g></g></g></svg>