<svg width="573" height="578" xmlns="http://www.w3.org/2000/svg" xmlns:xlink="http://www.w3.org/1999/xlink" overflow="hidden"><defs><clipPath id="clip0"><rect x="334" y="957" width="573" height="578"/></clipPath><clipPath id="clip1"><rect x="465" y="1090" width="313" height="313"/></clipPath><clipPath id="clip2"><rect x="465" y="1090" width="313" height="313"/></clipPath><clipPath id="clip3"><rect x="465" y="1090" width="313" height="313"/></clipPath></defs><g clip-path="url(#clip0)" transform="translate(-334 -957)"><rect x="337" y="961" width="570" height="571" fill="#000000" fill-opacity="1"/><g clip-path="url(#clip1)"><g clip-path="url(#clip2)"><g clip-path="url(#clip3)"><path d="M712.792 1207.37 660.625 1207.37 660.625 1129.12 582.375 1129.12 582.375 1207.37 530.208 1207.37 621.5 1298.67 712.792 1207.37ZM608.458 1233.46 608.458 1155.21 634.542 1155.21 634.542 1233.46 649.8 1233.46 621.5 1261.76 593.2 1233.46 608.458 1233.46ZM530.208 1324.75 712.792 1324.75 712.792 1350.83 530.208 1350.83Z" fill="#FFFFFF" fill-rule="nonzero" fill-opacity="1"/></g></g></g></g></svg>